<svg id="visual" viewBox="0 0 960 540" width="960" height="540" xmlns="http://www.w3.org/2000/svg" xmlns:xlink="http://www.w3.org/1999/xlink" version="1.1"><rect x="0" y="0" width="960" height="540" fill="#ffffff"></rect><g transform="translate(505.95947434858556 271.7272898132492)"><path d="M90.7 -167.4C95 -154.5 60.5 -84.8 57.7 -47.4C55 -10 84 -5 127.4 25.1C170.9 55.2 228.8 110.3 213.4 116.4C198.1 122.5 109.6 79.4 61.8 51.8C14 24.3 7 12.1 -19.8 46.3C-46.5 80.5 -93 161.1 -101.5 166C-110 170.9 -80.6 100.2 -113.6 59.9C-146.6 19.7 -242 9.8 -263.1 -12.2C-284.2 -34.2 -230.9 -68.3 -186.2 -88.4C-141.5 -108.5 -105.5 -114.4 -75.9 -112.7C-46.3 -110.9 -23.2 -101.5 10 -118.8C43.2 -136.1 86.3 -180.2 90.7 -167.4" fill="#a652ff"></path></g></svg>